<?xml version="1.0" standalone="no"?>
<!DOCTYPE svg PUBLIC "-//W3C//DTD SVG 20010904//EN"
 "http://www.w3.org/TR/2001/REC-SVG-20010904/DTD/svg10.dtd">
<svg version="1.0" xmlns="http://www.w3.org/2000/svg"
 width="2000.000000pt" height="1247.000000pt" viewBox="0 0 2000.000000 1247.000000"
 preserveAspectRatio="xMidYMid meet">

<g transform="translate(0.000000,1247.000000) scale(0.100000,-0.100000)"
fill="#000000" stroke="none">
<path d="M11055 12464 c-22 -2 -98 -9 -170 -15 -1192 -98 -2386 -578 -3333
-1338 l-132 -106 276 -3 276 -2 202 134 c464 310 921 532 1446 704 1279 420
2713 379 3965 -113 1593 -626 2826 -1893 3406 -3502 175 -484 286 -1009 330
-1558 17 -217 15 -692 -5 -915 -50 -564 -163 -1069 -350 -1571 -475 -1275
-1380 -2349 -2561 -3038 -1318 -770 -2905 -994 -4395 -621 -671 168 -1308 455
-1888 849 l-148 101 -277 -2 -277 -3 132 -107 c966 -776 2151 -1243 3401
-1343 344 -27 847 -19 1197 20 2619 294 4780 2223 5374 4795 64 281 105 532
138 865 21 207 17 927 -5 1135 -88 808 -278 1476 -612 2155 -730 1484 -2024
2624 -3584 3156 -367 125 -727 212 -1116 269 -314 45 -418 52 -840 55 -225 1
-428 1 -450 -1z"/>
<path d="M5890 7462 c0 -1737 -4 -2674 -10 -2763 -45 -576 -178 -946 -453
-1259 -78 -90 -264 -262 -483 -450 l-132 -112 165 -241 c91 -133 169 -246 173
-250 9 -10 163 62 323 151 480 270 819 601 1005 984 164 337 238 698 272 1328
6 114 10 1151 10 2713 l0 2527 -435 0 -435 0 0 -2628z"/>
<path d="M11390 6760 l0 -3330 1900 0 1900 0 0 355 0 355 -1465 0 -1465 0 0
1345 0 1345 1000 0 1000 0 0 355 0 355 -1000 0 -1000 0 0 920 0 920 1410 0
1410 0 0 355 0 355 -1845 0 -1845 0 0 -3330z"/>
<path d="M8935 4457 c-185 -39 -338 -169 -410 -352 -34 -84 -45 -232 -26 -323
30 -136 125 -273 244 -351 92 -60 165 -83 277 -88 168 -9 296 38 416 150 124
115 174 235 174 413 0 86 -5 119 -25 181 -41 123 -124 228 -233 297 -107 67
-291 99 -417 73z"/>
</g>
</svg>
